<svg xmlns="http://www.w3.org/2000/svg" xmlns:xlink="http://www.w3.org/1999/xlink" viewBox="0 0 3440.65 2021.45"><defs><style>.cls-1{fill:none;}.cls-2{isolation:isolate;}.cls-3{fill:#e6f2f5;}.cls-13,.cls-3{opacity:0.7;}.cls-29,.cls-4,.cls-41{fill:#e6e6e6;}.cls-24,.cls-4{mix-blend-mode:multiply;}.cls-5{fill:#e66242;}.cls-6{fill:#ff7654;}.cls-7{fill:#c45438;}.cls-8{fill:#ffbb17;}.cls-9{fill:url(#linear-gradient);}.cls-10{fill:#8a3eff;}.cls-11,.cls-13,.cls-14{fill:#8786fa;}.cls-12,.cls-56{fill:#9197fa;}.cls-12{opacity:0.8;}.cls-14,.cls-19{opacity:0.4;}.cls-15,.cls-19{fill:#554482;}.cls-16{fill:url(#linear-gradient-2);}.cls-17,.cls-52{fill:#f2f2f2;}.cls-18{fill:#ff4964;}.cls-20{fill:#ffa993;}.cls-21{fill:#34395b;}.cls-22{fill:#ff7d71;}.cls-23{fill:url(#linear-gradient-3);}.cls-24{fill:#ccc;}.cls-25{fill:#ff8f85;}.cls-26{fill:url(#linear-gradient-4);}.cls-27{fill:url(#linear-gradient-5);}.cls-28{fill:#634e96;}.cls-29,.cls-52{mix-blend-mode:soft-light;}.cls-30{fill:#454a68;}.cls-31{fill:#313131;}.cls-32{fill:#ffb29e;}.cls-33{fill:#ededed;}.cls-34{fill:url(#linear-gradient-6);}.cls-35{fill:#292f52;}.cls-36{fill:url(#linear-gradient-7);}.cls-37{fill:url(#linear-gradient-8);}.cls-38{fill:#474c6a;}.cls-39{fill:url(#linear-gradient-9);}.cls-40{fill:url(#linear-gradient-10);}.cls-42{fill:#f8f8f8;}.cls-43{fill:url(#linear-gradient-11);}.cls-44{fill:url(#linear-gradient-12);}.cls-45{fill:#ff9d87;}.cls-46{fill:#ffad98;}.cls-47{fill:#253342;}.cls-48{fill:#5f4c91;}.cls-49{fill:url(#linear-gradient-13);}.cls-50{fill:url(#linear-gradient-14);}.cls-51{fill:url(#linear-gradient-15);}.cls-52{opacity:0.5;}.cls-53{fill:url(#linear-gradient-16);}.cls-54{fill:url(#linear-gradient-17);}.cls-55{clip-path:url(#clip-path);}.cls-56{opacity:0.6;}</style><linearGradient id="linear-gradient" x1="1570.93" y1="1262.07" x2="2688.46" y2="1262.07" gradientUnits="userSpaceOnUse"><stop offset="0.01" stop-color="#c6e3f5"/><stop offset="1" stop-color="#bacfe8"/></linearGradient><linearGradient id="linear-gradient-2" x1="1319.52" y1="482.45" x2="1734.3" y2="482.45" xlink:href="#linear-gradient"/><linearGradient id="linear-gradient-3" x1="1445.39" y1="1281.25" x2="1389.84" y2="1761.24" gradientUnits="userSpaceOnUse"><stop offset="0" stop-color="#34395b"/><stop offset="1" stop-color="#292f52"/></linearGradient><linearGradient id="linear-gradient-4" x1="1109.04" y1="1268.99" x2="1306.42" y2="1268.99" gradientUnits="userSpaceOnUse"><stop offset="0" stop-color="#554482"/><stop offset="1" stop-color="#2e3459"/></linearGradient><linearGradient id="linear-gradient-5" x1="1450.54" y1="1050.74" x2="1363.88" y2="1430.74" gradientUnits="userSpaceOnUse"><stop offset="0" stop-color="#614d94"/><stop offset="1" stop-color="#333a63"/></linearGradient><linearGradient id="linear-gradient-6" x1="1448.95" y1="1287.85" x2="1589.68" y2="1287.85" xlink:href="#linear-gradient-4"/><linearGradient id="linear-gradient-7" x1="850.61" y1="1326.81" x2="892.83" y2="1780.14" xlink:href="#linear-gradient-4"/><linearGradient id="linear-gradient-8" x1="846.3" y1="1084.01" x2="879.63" y2="1441.79" gradientUnits="userSpaceOnUse"><stop offset="0" stop-color="#3e4463"/><stop offset="1" stop-color="#292f52"/></linearGradient><linearGradient id="linear-gradient-9" x1="1360.64" y1="2015.98" x2="1260.64" y2="2091.53" gradientTransform="matrix(-1, 0, 0, 1, 4383.49, 0)" xlink:href="#linear-gradient-4"/><linearGradient id="linear-gradient-10" x1="1068.57" y1="2000.59" x2="1153.01" y2="2082.81" gradientTransform="matrix(-1, 0, 0, 1, 4383.49, 0)" xlink:href="#linear-gradient-4"/><linearGradient id="linear-gradient-11" x1="3001.69" y1="1151.05" x2="3189.62" y2="1489.33" xlink:href="#linear-gradient-4"/><linearGradient id="linear-gradient-12" x1="3340.9" y1="1112.98" x2="3202.43" y2="1495" xlink:href="#linear-gradient-4"/><linearGradient id="linear-gradient-13" x1="3179.87" y1="1323.71" x2="3109.74" y2="1462.07" gradientUnits="userSpaceOnUse"><stop offset="0" stop-color="#a367ff"/><stop offset="1" stop-color="#8a3eff"/></linearGradient><linearGradient id="linear-gradient-14" x1="2919.17" y1="1269.44" x2="2791.76" y2="1380.55" xlink:href="#linear-gradient-4"/><linearGradient id="linear-gradient-15" x1="2738.91" y1="927.23" x2="2236.69" y2="1473.9" gradientTransform="translate(1578.4 -1405.76) rotate(45)" xlink:href="#linear-gradient-13"/><linearGradient id="linear-gradient-16" x1="2236.33" y1="1423.78" x2="2727.41" y2="988.56" gradientUnits="userSpaceOnUse"><stop offset="0" stop-color="#bee8fa"/><stop offset="1" stop-color="#d0e4fa"/></linearGradient><linearGradient id="linear-gradient-17" x1="3407.24" y1="1129.2" x2="3285.1" y2="1466.15" xlink:href="#linear-gradient-4"/><clipPath id="clip-path" transform="translate(-192.31 -144.93)"><circle class="cls-1" cx="2492.45" cy="1061.23" r="114.81"/></clipPath></defs><g class="cls-2"><g id="Layer_3" data-name="Layer 3"><path class="cls-3" d="M3468.54,2166.38C3969.15,100.45,3189.62,438.22,2946.47,563.91s-555.77-.46-800.25-164.18C1515.55-22.61,1133.83,132.38,877,484.92c-93.7,128.65-107.82,293.35-371.88,329.92-665.1,92.11-90.36,660.28,88.43,1351.54Z" transform="translate(-192.31 -144.93)"/><path class="cls-4" d="M773.64,2077.42l23.36-1.26c7.62-.4,17-.87,28.06-1.38s23.73-1.1,38-1.72c28.43-1.25,63-2.6,102.57-4l63.07-2.1,69.94-2.06,76-1.94,81.37-1.77,85.94-1.54,89.73-1.28c60.93-.79,123.89-1.34,187.87-1.72s129-.5,194-.45,130,.28,194,.72,126.92,1,187.85,1.91l45.31.6,44.42.73c29.34.5,58,.93,86,1.55,55.85,1.1,108.66,2.36,157.39,3.66s93.43,2.69,133,4.05c19.81.69,38.34,1.3,55.47,2s32.88,1.25,47.11,1.86l20.15.84,17.79.81,28,1.32,23.36,1.2c10.75.56,18.58,5.39,17.48,10.82-1,4.74-8.43,8.34-17.48,8.81l-23.36,1.2-28,1.32-17.79.81c-6.33.26-13.06.53-20.15.84-14.23.61-30,1.21-47.11,1.86s-35.66,1.3-55.47,2c-39.6,1.36-84.29,2.73-133,4s-101.54,2.57-157.39,3.66c-27.92.62-56.62,1.06-86,1.56l-44.42.73-45.31.6c-60.93.88-123.88,1.46-187.85,1.9s-129,.69-194,.73-130-.07-194-.45-126.94-.93-187.87-1.72l-89.73-1.28-85.94-1.55-81.37-1.76-76-1.94-69.94-2.06-63.07-2.1c-39.62-1.43-74.14-2.77-102.57-4-14.22-.62-26.92-1.18-38-1.72s-20.44-1-28.06-1.38l-23.36-1.26c-10.75-.59-18.53-5.45-17.38-10.87C757.26,2081.48,764.68,2077.9,773.64,2077.42Z" transform="translate(-192.31 -144.93)"/><path class="cls-4" d="M2965.63,2078l4.59-.74c1.49-.23,3.33-.51,5.5-.8s4.66-.64,7.46-1c5.58-.72,12.35-1.51,20.13-2.34l12.38-1.22,13.74-1.2,14.92-1.14,16-1,16.87-.9,17.62-.75c12-.46,24.32-.78,36.88-1s25.32-.29,38.08-.26,25.52.16,38.08.42,24.92.6,36.88,1.11l8.89.35,8.72.42c5.76.3,11.39.55,16.88.91,11,.64,21.33,1.37,30.9,2.13s18.34,1.57,26.11,2.36c3.89.4,7.53.76,10.89,1.16s6.46.73,9.25,1.09l4,.49,3.49.47c2.17.3,4,.55,5.51.77l4.58.7c2.11.32,3.65,3.14,3.44,6.3-.2,2.76-1.66,4.87-3.44,5.14l-4.58.7-5.51.77-3.49.47-4,.49c-2.79.35-5.88.7-9.25,1.08s-7,.76-10.89,1.16c-7.77.79-16.54,1.59-26.11,2.36s-19.94,1.49-30.9,2.13c-5.49.36-11.12.62-16.88.91l-8.72.43-8.89.34c-12,.52-24.32.85-36.88,1.11s-25.32.41-38.08.43-25.52,0-38.08-.27-24.92-.54-36.88-1l-17.62-.75-16.87-.89-16-1-14.92-1.13-13.74-1.2-12.38-1.23c-7.78-.83-14.55-1.61-20.13-2.34q-4.2-.54-7.46-1c-2.17-.3-4-.58-5.5-.81l-4.59-.73c-2.11-.34-3.64-3.18-3.41-6.34C2962.42,2080.38,2963.87,2078.3,2965.63,2078Z" transform="translate(-192.31 -144.93)"/></g><g id="Layer_4" data-name="Layer 4"><path class="cls-5" d="M1998,1128.39a35.58,35.58,0,0,1-24.83-10.06l-113.66-110.18c-10.92-10.58-36.57-21-51.77-21H1504.55c-15.21,0-40.86,10.4-51.78,21l-113.66,110.18a35.67,35.67,0,1,1-49.66-51.23L1403.1,956.92c24.17-23.43,67.78-41.1,101.45-41.1h303.23c33.66,0,77.27,17.67,101.44,41.1l113.66,110.18a35.68,35.68,0,0,1-24.84,61.29Z" transform="translate(-192.31 -144.93)"/><path class="cls-5" d="M2443.22,1141.87v856.18c0,49-40.13,89.18-89.19,89.18H958.28a89.44,89.44,0,0,1-89.18-89.18V1141.87c0-2.23.08-4.46.27-6.61a89.43,89.43,0,0,1,88.91-82.58H2354a89.19,89.19,0,0,1,72.51,37.46A88.21,88.21,0,0,1,2443.22,1141.87Z" transform="translate(-192.31 -144.93)"/><path class="cls-6" d="M2426.54,1090.14,2269.14,1570c-15.35,46.55-68,84.73-117,84.73H1129c-49,0-101.66-38.18-117-84.73l-142.6-434.7a89.43,89.43,0,0,1,88.91-82.58H2354A89.19,89.19,0,0,1,2426.54,1090.14Z" transform="translate(-192.31 -144.93)"/><path class="cls-7" d="M2443.22,1823.34v174.71c0,49-40.13,89.18-89.19,89.18h-53.68C2315.42,1974.85,2369,1879.16,2443.22,1823.34Z" transform="translate(-192.31 -144.93)"/><path class="cls-7" d="M869.1,1823.34v174.71a89.44,89.44,0,0,0,89.18,89.18H1012C996.9,1974.85,943.3,1879.16,869.1,1823.34Z" transform="translate(-192.31 -144.93)"/><rect class="cls-8" x="1341.23" y="1453.27" width="249.7" height="101.07" rx="11.11"/><rect class="cls-9" x="1570.93" y="581.84" width="1117.53" height="1360.47" rx="66.84"/><path class="cls-10" d="M2108.67,714.29v48.24c0,26.53,30.07,48.24,66.83,48.24h293c36.76,0,66.84-21.71,66.84-48.24V714.29Z" transform="translate(-192.31 -144.93)"/><path class="cls-11" d="M2039.29,1359c-10.62,19.65-25.32,30.21-41.34,30.21a35.07,35.07,0,0,1-5.09-.37,61,61,0,0,0,11.83-13.12c12.1-3.67,20.22-16.17,23.69-22.62,11.7-21.6,12.57-46.7,5.45-53-2.68-2.41-6.84-1.76-11-.1.12-4.59.15-9,.15-13.05,9.1-2.33,15.2.42,19.12,3.9C2055.86,1303.07,2051.74,1336,2039.29,1359Z" transform="translate(-192.31 -144.93)"/><path class="cls-11" d="M1949,1388.81a35.34,35.34,0,0,1-5.11.37c-16,0-30.7-10.56-41.35-30.21-12.44-23-16.56-55.9-2.82-68.2,3.92-3.5,10-6.23,19.15-3.9,0,4.1,0,8.48.12,13.07-4.14-1.68-8.31-2.33-11,.08-7.12,6.35-6.25,31.45,5.46,53,3.5,6.45,11.6,19,23.71,22.62v0A61.47,61.47,0,0,0,1949,1388.81Z" transform="translate(-192.31 -144.93)"/><path class="cls-12" d="M2023,1282.63v4.24c0,4.1,0,8.46-.15,13.05-.52,24.28-3.38,54.17-18.16,75.77a61,61,0,0,1-11.83,13.12c-.69.6-1.39,1.17-2.11,1.72l25,24.64c4,5.54,1.69,10.07-5.14,10.07h-79.36c-6.82,0-9.16-4.53-5.16-10.07l25-24.64c-.72-.55-1.42-1.12-2.11-1.72a61.47,61.47,0,0,1-11.83-13.1v0c-14.78-21.58-17.63-51.49-18.18-75.75-.1-4.59-.12-9-.12-13.07v-4.24s24.8-17.36,52.08-17.36S2023,1282.63,2023,1282.63Z" transform="translate(-192.31 -144.93)"/><path class="cls-12" d="M1967.3,1648.68c-43.51-6-111.82-44.62-107.53-57.5s100.2-56,131.25-51.23c31.81,4.9,91.28,64,91.21,76.55s-39.28,20.81-55.12,24.46C2004.79,1646.11,1967.3,1648.68,1967.3,1648.68Z" transform="translate(-192.31 -144.93)"/><path class="cls-11" d="M2036.54,1611.78c-28.31-26.6-99.54-22.31-115-11.15-6,25.74,4.29,69.41,4.29,69.41s55.79-11.06,110.7,8.68C2037.31,1642.68,2036.54,1611.78,2036.54,1611.78Z" transform="translate(-192.31 -144.93)"/><path class="cls-12" d="M2009.21,1853.82,1997,1830.74c-2.33-4.42-8.77-8.3-13.76-8.3h-24.76c-5,0-11.43,3.88-13.76,8.3l-12.17,23.08-8.76-4.61,12.17-23.09c4-7.61,13.91-13.58,22.52-13.58h24.76c8.61,0,18.5,6,22.52,13.58l12.17,23.09Z" transform="translate(-192.31 -144.93)"/><path class="cls-12" d="M2055.87,1931.48a12.41,12.41,0,0,1-12.38,12.37H1898.31a12.41,12.41,0,0,1-12.38-12.37v-87a12.42,12.42,0,0,1,12.38-12.38h145.18a12.42,12.42,0,0,1,12.38,12.38Z" transform="translate(-192.31 -144.93)"/><path class="cls-11" d="M1895.82,1889.94a15.23,15.23,0,0,0,14.46,12.2h121.24a15.24,15.24,0,0,0,14.46-12.2l7.8-45.61a10.11,10.11,0,0,0-10.29-12.2H1898.31a10.11,10.11,0,0,0-10.29,12.2Z" transform="translate(-192.31 -144.93)"/><path class="cls-13" d="M2413.11,1279.23c0,7.67-7.3,14-16.23,14H2144.71c-8.93,0-16.23-6.28-16.23-14s7.3-14,16.23-14h252.17C2405.81,1265.27,2413.11,1271.55,2413.11,1279.23Z" transform="translate(-192.31 -144.93)"/><path class="cls-14" d="M2763.73,1331.73c0,5.07-4.83,9.22-10.73,9.22H2139.21c-5.9,0-10.73-4.15-10.73-9.22s4.83-9.23,10.73-9.23H2753C2758.9,1322.5,2763.73,1326.65,2763.73,1331.73Z" transform="translate(-192.31 -144.93)"/><path class="cls-14" d="M2763.73,1366.51c0,5.08-4.83,9.23-10.73,9.23H2139.21c-5.9,0-10.73-4.15-10.73-9.23s4.83-9.22,10.73-9.22H2753C2758.9,1357.29,2763.73,1361.44,2763.73,1366.51Z" transform="translate(-192.31 -144.93)"/><path class="cls-14" d="M2763.73,1402.64c0,5.08-4.83,9.23-10.73,9.23H2139.21c-5.9,0-10.73-4.15-10.73-9.23s4.83-9.22,10.73-9.22H2753C2758.9,1393.42,2763.73,1397.57,2763.73,1402.64Z" transform="translate(-192.31 -144.93)"/><path class="cls-13" d="M2413.11,1549.57c0,7.67-7.3,14-16.23,14H2144.71c-8.93,0-16.23-6.28-16.23-14s7.3-14,16.23-14h252.17C2405.81,1535.61,2413.11,1541.89,2413.11,1549.57Z" transform="translate(-192.31 -144.93)"/><path class="cls-14" d="M2763.73,1602.07c0,5.07-4.83,9.22-10.73,9.22H2139.21c-5.9,0-10.73-4.15-10.73-9.22s4.83-9.23,10.73-9.23H2753C2758.9,1592.84,2763.73,1597,2763.73,1602.07Z" transform="translate(-192.31 -144.93)"/><path class="cls-14" d="M2763.73,1636.85c0,5.08-4.83,9.22-10.73,9.22H2139.21c-5.9,0-10.73-4.14-10.73-9.22s4.83-9.23,10.73-9.23H2753C2758.9,1627.62,2763.73,1631.78,2763.73,1636.85Z" transform="translate(-192.31 -144.93)"/><path class="cls-14" d="M2763.73,1673c0,5.08-4.83,9.23-10.73,9.23H2139.21c-5.9,0-10.73-4.15-10.73-9.23s4.83-9.22,10.73-9.22H2753C2758.9,1663.76,2763.73,1667.91,2763.73,1673Z" transform="translate(-192.31 -144.93)"/><path class="cls-13" d="M2413.11,1819.9c0,7.68-7.3,14-16.23,14H2144.71c-8.93,0-16.23-6.28-16.23-14s7.3-14,16.23-14h252.17C2405.81,1806,2413.11,1812.23,2413.11,1819.9Z" transform="translate(-192.31 -144.93)"/><path class="cls-14" d="M2763.73,1872.41c0,5.07-4.83,9.22-10.73,9.22H2139.21c-5.9,0-10.73-4.15-10.73-9.22s4.83-9.23,10.73-9.23H2753C2758.9,1863.18,2763.73,1867.33,2763.73,1872.41Z" transform="translate(-192.31 -144.93)"/><path class="cls-14" d="M2763.73,1907.19c0,5.08-4.83,9.22-10.73,9.22H2139.21c-5.9,0-10.73-4.14-10.73-9.22s4.83-9.23,10.73-9.23H2753C2758.9,1898,2763.73,1902.12,2763.73,1907.19Z" transform="translate(-192.31 -144.93)"/><path class="cls-14" d="M2763.73,1943.32c0,5.07-4.83,9.23-10.73,9.23H2139.21c-5.9,0-10.73-4.16-10.73-9.23s4.83-9.23,10.73-9.23H2753C2758.9,1934.09,2763.73,1938.25,2763.73,1943.32Z" transform="translate(-192.31 -144.93)"/><path class="cls-13" d="M2167.64,963.51c0,7.68-7.31,14-16.24,14H1899.23c-8.93,0-16.23-6.28-16.23-14s7.3-14,16.23-14H2151.4C2160.33,949.56,2167.64,955.84,2167.64,963.51Z" transform="translate(-192.31 -144.93)"/><path class="cls-14" d="M2518.25,1040.87c0,5.07-4.83,9.22-10.73,9.22H1893.73c-5.9,0-10.73-4.15-10.73-9.22s4.83-9.23,10.73-9.23h613.79C2513.42,1031.64,2518.25,1035.79,2518.25,1040.87Z" transform="translate(-192.31 -144.93)"/><path class="cls-14" d="M2518.25,1078.43c0,5.07-4.83,9.22-10.73,9.22H1893.73c-5.9,0-10.73-4.15-10.73-9.22s4.83-9.23,10.73-9.23h613.79C2513.42,1069.2,2518.25,1073.35,2518.25,1078.43Z" transform="translate(-192.31 -144.93)"/><path class="cls-14" d="M2518.25,1116c0,5.07-4.83,9.22-10.73,9.22H1893.73c-5.9,0-10.73-4.15-10.73-9.22s4.83-9.23,10.73-9.23h613.79C2513.42,1106.76,2518.25,1110.91,2518.25,1116Z" transform="translate(-192.31 -144.93)"/><circle class="cls-15" cx="1594.41" cy="626.83" r="134.67" transform="translate(-168.55 1166.08) rotate(-45)"/><polygon class="cls-16" points="1319.52 262.97 1734.3 394.99 1734.3 482.45 1734.3 569.92 1319.52 701.94 1319.52 482.45 1319.52 262.97"/><path class="cls-17" d="M2027.36,626.83a53.32,53.32,0,1,0,53.31-53.31A53.32,53.32,0,0,0,2027.36,626.83Z" transform="translate(-192.31 -144.93)"/><path class="cls-18" d="M1495.32,830.37a16.55,16.55,0,0,0,16.51,16.5h0a16.55,16.55,0,0,0,16.5-16.5v-406a16.55,16.55,0,0,0-16.5-16.5h0a16.55,16.55,0,0,0-16.51,16.5Z" transform="translate(-192.31 -144.93)"/><path class="cls-18" d="M1926.6,713.75h127.62a49.66,49.66,0,0,0,49.51-49.51V589.43a49.66,49.66,0,0,0-49.51-49.51H1926.6Z" transform="translate(-192.31 -144.93)"/><path class="cls-19" d="M1959.61,648.9h109.83a5.69,5.69,0,1,0,0-11.37H1959.61a5.69,5.69,0,1,0,0,11.37Z" transform="translate(-192.31 -144.93)"/><path class="cls-19" d="M1959.61,677.44h109.83a5.69,5.69,0,1,0,0-11.37H1959.61a5.69,5.69,0,1,0,0,11.37Z" transform="translate(-192.31 -144.93)"/><path class="cls-15" d="M2038.82,713.75s-24.94,61.88-33.25,84-41.56,33.24-61,27.71c-8.32-4.62,34.17-111.76,34.17-111.76Z" transform="translate(-192.31 -144.93)"/></g><g id="Layer_2" data-name="Layer 2"><path class="cls-20" d="M1432.88,1751.4c-2,44.47,2.36,129.83,8.67,198.88,2.54,27.69,9.08,67.75-9,86.74,0,47.9,57.85,44.94,64.17-27.85a172.74,172.74,0,0,1-3.16-41.77c.63-15.2,20.26-151.28,15.19-200S1476.4,1730,1471,1731.94,1432.88,1751.4,1432.88,1751.4Z" transform="translate(-192.31 -144.93)"/><path class="cls-21" d="M1439.52,2027.74c-8.44,12.23-32.07,39.66-25.74,53.16a17,17,0,0,0,7.18,6.33h45.78c14.34,0,25.74-19.12,25.74-19.12s3.37,13.22,3.37,19.12h5.07s15.61-50.63-4.23-78.06c-16.87,7.18-13.49,43-46,50.21C1435.51,2062.74,1439.52,2027.74,1439.52,2027.74Z" transform="translate(-192.31 -144.93)"/><path class="cls-20" d="M1300,1751.4c-2,44.47,2.36,129.83,8.68,198.88,2.54,27.69,9.07,67.75-9,86.74,0,47.9,57.84,44.94,64.17-27.85a172.71,172.71,0,0,1-3.17-41.77c.64-15.2,20.26-151.28,15.19-200s-32.32-37.35-37.68-35.45S1300,1751.4,1300,1751.4Z" transform="translate(-192.31 -144.93)"/><path class="cls-21" d="M1306.63,2027.74c-8.43,12.23-32.06,39.66-25.73,53.16a17,17,0,0,0,7.17,6.33h45.78c14.35,0,25.74-19.12,25.74-19.12s3.38,13.22,3.38,19.12H1368s15.61-50.63-4.22-78.06c-16.88,7.18-13.51,43-46,50.21C1302.62,2062.74,1306.63,2027.74,1306.63,2027.74Z" transform="translate(-192.31 -144.93)"/><path class="cls-22" d="M1432.88,1751.41c-.58,13-.64,29.45-.23,48a410.92,410.92,0,0,0,76.92-11.9,199.36,199.36,0,0,0-.84-20.1c-5.06-48.74-32.33-37.35-37.7-35.45S1432.88,1751.41,1432.88,1751.41Z" transform="translate(-192.31 -144.93)"/><path class="cls-22" d="M1299.53,1779.84a282.58,282.58,0,0,0,77,18.46,244.39,244.39,0,0,0-.66-30.91c-5.06-48.74-32.33-37.35-37.7-35.45s-38.15,19.47-38.15,19.47C1299.61,1759.61,1299.46,1769.21,1299.53,1779.84Z" transform="translate(-192.31 -144.93)"/><path class="cls-23" d="M1272.11,1741.7c72.77,39.92,150.29,46.82,219.76,26.67v0l.42-.14A281,281,0,0,0,1534,1752.4l.31-.13c7-43.13,3.16-246.91-28.35-335.12-13.55-7.6-25.56-15-36.32-22.07-46.08-30.15-68.48-52.65-84.82-46.16-20.15,8-94,47.56-94,47.56C1281.45,1442.46,1258,1630.48,1272.11,1741.7Z" transform="translate(-192.31 -144.93)"/><path class="cls-24" d="M1524.42,1499l-40.27,27.26s-42.92-27.22-57.47-36.08-69.63-39.24-37.35-75.32,131.4,61.46,131.4,61.46Z" transform="translate(-192.31 -144.93)"/><path class="cls-24" d="M1322.6,1427.6c-18.43,77.17-39.67,195.2-11.14,332.37a320.88,320.88,0,0,1-39.35-18.25c-14.07-111.25,9.34-299.26,18.69-345.24,0,0,5.54-3,14-7.44,11.5,6.28,21.93,11.4,26.46,8.33C1326.9,1414.36,1322.6,1427.6,1322.6,1427.6Z" transform="translate(-192.31 -144.93)"/><path class="cls-25" d="M1133.83,1406.89c-24.9,2.95-31.23,18.57-64.31,24.9-19.77,3.78-33.17-12.66-45-30s16-21.1,31.41-20.12,11.21-6.47,18.8-14.14,26.58,3,32.07,2.61,17.72-5.21,17.72-5.21Z" transform="translate(-192.31 -144.93)"/><path class="cls-26" d="M1303,1121.91c-18.69,11.52-36,25.64-42.79,53.07s-34.08,136.89-34.08,136.89c-14.34,13.91-103.38,48.51-113.5,51-8.44,19.41-.85,39.67,11.81,53.17,16.88-1.69,120.64-35.08,154.76-68.36,15-14.64,27.24-67.27,27.24-67.27Z" transform="translate(-192.31 -144.93)"/><path class="cls-24" d="M1306.42,1280.45s-12.23,52.64-27.24,67.27c-13,12.63-36,25.27-60.44,36.2,65.78-39,56.23-61.57,54.62-79.24-2.94-32.28,9-97.44,15.21-122,0,0,7.77,13.85,16.46,33.16Z" transform="translate(-192.31 -144.93)"/><path class="cls-27" d="M1286.05,1400.28c29.68,30.17,57.42,26.2,57.42,26.2l24.43-31.11s14.18,30.62,28.25,35.28c7.85,2.61,34,1.69,58.79-1.56l.83-.1c19.28-2.58,37.63-6.61,45.74-11.53-30.81-80.79,15.22-119,11.64-173.18v0c-.06-1.27-.17-2.53-.31-3.8-4.68-43.42,36.71-64,32.76-99.09-28.78-25.66-104-55.24-104-55.24l-62.54-3.25c-20.7,6.93-64.41,28-76.12,39s-25.92,119.74-8,153.06C1312.83,1308,1299.55,1353,1286.05,1400.28Z" transform="translate(-192.31 -144.93)"/><path class="cls-24" d="M1446.38,1430.13c-22,2.36-43.3,2.81-50.24.51-14.05-4.66-28.25-35.27-28.25-35.27l-24.41,31.11s-27.74,4-57.42-26.2c1.78-6.2,3.35-12,4.71-17.44,11.6,12.91,21.7,14,38.43,9.22,6.18-1.75,108.26-73.25,108.26-73.25S1447.29,1394.94,1446.38,1430.13Z" transform="translate(-192.31 -144.93)"/><path class="cls-28" d="M1470.09,1098.25c41.73,51.92-20.67,41.9-13.11,71.65,15,59.09-64.22,78.48-86.25,105.08-86-100.52-25.09-118.31-37.22-148.35-3.75-9.28,19-32.88,19-32.88l26.57-10.87,62.55,3.25Z" transform="translate(-192.31 -144.93)"/><path class="cls-10" d="M1451,1089.94c-1.84,72-73.1,117.08-80.46,177.45-39.07-80.55-9.48-134-4.65-160.07S1451,1089.94,1451,1089.94Z" transform="translate(-192.31 -144.93)"/><path class="cls-29" d="M1363.37,1117.39c12.59,12.17,40.59,22,85.82-10.23l1.64-13.63-85,13.79Z" transform="translate(-192.31 -144.93)"/><path class="cls-30" d="M1370.17,1282.41s-.47,1.51-1.21,4.17c-.36,1.33-.81,2.94-1.31,4.79s-.94,4-1.4,6.34-1,4.9-1.41,7.6-.72,5.56-1.06,8.51-.62,6-.79,9.13-.48,6.28-.48,9.45-.07,6.34-.1,9.45.19,6.19.27,9.15c.16,5.93.75,11.45,1.19,16.17s1.19,8.62,1.53,11.36.71,4.29.71,4.29l1.58-.17s0-1.57,0-4.33-.22-6.67-.24-11.37c0-2.35-.06-4.9-.1-7.59s0-5.52,0-8.46,0-6,0-9,.14-6.2.21-9.32.27-6.24.39-9.31.23-6.1.5-9,.43-5.73.59-8.41.54-5.17.78-7.48.38-4.47.69-6.37.51-3.56.7-4.93c.38-2.73.54-4.3.54-4.3Z" transform="translate(-192.31 -144.93)"/><path class="cls-24" d="M1455.77,1429c5-.58,31.26-3.88,44-10.57.63-.31,1.22-.64,1.76-1-30.81-80.79,15.22-119,11.64-173.18v0l-8.88-51c1.72,34.12-31,122.48-26.09,162.23s4.87,62.21-23.24,73.64Z" transform="translate(-192.31 -144.93)"/><path class="cls-31" d="M1496.49,981.77c-9.93-73.57-29.8-86.79-54.84-89.31-34-3.42-70.13-23.63-97.73,8.92-36,42.39-7.12,138.76-25.69,198.54,5.38,3.1,43-4.08,59.92-18Z" transform="translate(-192.31 -144.93)"/><path class="cls-20" d="M1368,1066s8.6,17.91-2.16,41.32c20.89,25.32,64.06,7.07,84.27-13,3.75-15.61,3.75-39.66,3.75-39.66s16.43-35.11-6.33-26S1368,1066,1368,1066Z" transform="translate(-192.31 -144.93)"/><path class="cls-22" d="M1443.81,1041,1368,1066l2.27,8.12c8.27,16.21,50.75-1.15,42.15,18.77a100.76,100.76,0,0,1-16.6,25.81s37.67-3,54.29-24.34c2.81-19.07,3.51-30.13,3.51-30.13Z" transform="translate(-192.31 -144.93)"/><path class="cls-32" d="M1346.3,945.2c-4.43,20.25-11.46,145.2,54.78,125.46,34.46-10.26,50.28-25.45,58.51-48.24s42.41-73.42-19-81S1346.3,945.2,1346.3,945.2Z" transform="translate(-192.31 -144.93)"/><path class="cls-22" d="M1434.27,987.61c-29.32-52.54-69-2.74-90.35-19.26l.77-11.37s67.85-24.44,83-5.45S1434.27,987.61,1434.27,987.61Z" transform="translate(-192.31 -144.93)"/><path class="cls-22" d="M1438,1023.6s-5,29-9.64,35.85c4.93-3,12.55-8.88,12.55-8.88s14.4-21.38,9.28-23.34A115.17,115.17,0,0,0,1438,1023.6Z" transform="translate(-192.31 -144.93)"/><path class="cls-31" d="M1496.49,981.77s-17.55-31.95-28-37.47c-37.34-19.62-88-57.33-107-37.07s-22.79,50.63-22.79,50.63c28.48,32.91,67.09-43,95.57,29.75,2.39,10,1.28,28,5.34,43.75-1.07,25.37-7.27,53.13-15.95,71.75C1519.81,1082.54,1506.43,1055.33,1496.49,981.77Z" transform="translate(-192.31 -144.93)"/><path class="cls-32" d="M1434.27,987.61s16.47-13.15,19.62,0-5.81,34.64-15.88,36C1429.84,1005.78,1434.27,987.61,1434.27,987.61Z" transform="translate(-192.31 -144.93)"/><polygon class="cls-33" points="1175.05 1233.7 1305.74 1383.97 1409.47 1296.38 1278.78 1146.1 1175.05 1233.7 1175.05 1233.7"/><path class="cls-20" d="M1449.18,1403.19c-6.38,5.21-45,5.06-40.15,20.12.77,4.41-20.48,13.89-3.44,33.66s38.84,25.46,45.35,12,10.87-24.37,19-36.32,8.39-31.51-.87-30A94,94,0,0,1,1449.18,1403.19Z" transform="translate(-192.31 -144.93)"/><path class="cls-34" d="M1545.6,1141.37c10.29,11.73,52.25,160.24,42.66,184.09s-115.83,108.87-115.83,108.87-24.66-14.93-23.43-36c9.56-11.56,78.63-88.93,79.59-92s-16.73-38.81-16.73-38.81-24.79-54.82-.48-99.22C1525,1143.44,1545.6,1141.37,1545.6,1141.37Z" transform="translate(-192.31 -144.93)"/><path class="cls-20" d="M989.21,1520.48c-2.93,25.58,24.72,13.53,25.62,54,.47,21.23,31.18,3,36.24-17.3s-17.29-43.87-24-71.28l-45.13,3.37Z" transform="translate(-192.31 -144.93)"/><path class="cls-35" d="M966.49,1120.37c13.7,13.34,40,28.1,47.44,88.84,3.56,28.9-8,112.34-3.79,140.12s36.28,142.5,36.28,154.31c-14.35,9.29-45.56,15.19-60.75,4.22,0,0-25.09-138.35-26-180.54S966.49,1120.37,966.49,1120.37Z" transform="translate(-192.31 -144.93)"/><path class="cls-20" d="M858.52,1751.51c2,44.46-2.36,129.79-8.68,198.82-2.54,27.68-9.07,67.72,9,86.71,0,47.88-57.82,44.92-64.15-27.85a172.61,172.61,0,0,0,3.16-41.76c-.63-15.18-20.24-151.22-15.18-199.94s32.31-37.33,37.67-35.43S858.52,1751.51,858.52,1751.51Z" transform="translate(-192.31 -144.93)"/><path class="cls-35" d="M851.87,2027.76c8.44,12.23,32.06,39.65,25.74,53.15a17,17,0,0,1-7.18,6.32H824.67c-14.35,0-25.73-19.12-25.73-19.12s-3.38,13.22-3.38,19.12H790.5s-15.61-50.62,4.22-78c16.87,7.18,13.5,43,46,50.2C855.88,2062.75,851.87,2027.76,851.87,2027.76Z" transform="translate(-192.31 -144.93)"/><path class="cls-20" d="M991.36,1751.51c2,44.46-2.35,129.79-8.68,198.82-2.53,27.68-9.07,67.72,9,86.71,0,47.88-57.83,44.92-64.16-27.85a172.08,172.08,0,0,0,3.17-41.76c-.63-15.18-20.25-151.22-15.19-199.94s32.32-37.33,37.67-35.43S991.36,1751.51,991.36,1751.51Z" transform="translate(-192.31 -144.93)"/><path class="cls-35" d="M984.72,2027.76c8.44,12.23,32.06,39.65,25.73,53.15a17,17,0,0,1-7.17,6.32H957.51c-14.34,0-25.73-19.12-25.73-19.12s-3.37,13.22-3.37,19.12h-5.06s-15.61-50.62,4.21-78c16.88,7.18,13.5,43,46,50.2C988.73,2062.75,984.72,2027.76,984.72,2027.76Z" transform="translate(-192.31 -144.93)"/><path class="cls-22" d="M858.51,1751.52c.59,13,.64,29.44.23,48a410.8,410.8,0,0,1-76.89-11.89c0-7.65.26-14.45.84-20.1,5.06-48.72,32.32-37.33,37.68-35.43S858.51,1751.52,858.51,1751.52Z" transform="translate(-192.31 -144.93)"/><path class="cls-22" d="M991.82,1779.94a282.35,282.35,0,0,1-76.94,18.45,244.51,244.51,0,0,1,.65-30.9c5.07-48.72,32.33-37.33,37.69-35.43s38.14,19.46,38.14,19.46C991.74,1759.72,991.89,1769.31,991.82,1779.94Z" transform="translate(-192.31 -144.93)"/><path class="cls-36" d="M1013.43,1741.55c-72.22,40.83-149.62,48.72-219.33,29.47v0l-.42-.14a280.38,280.38,0,0,1-41.89-15.3l-.31-.13c-7.59-43-6.33-246.77,24-335.35,13.45-7.77,25.36-15.36,36-22.52,45.68-30.73,67.78-53.51,84.2-47.23,20.25,7.75,94.58,46.34,94.58,46.34C1000.27,1442.55,1026.09,1630.19,1013.43,1741.55Z" transform="translate(-192.31 -144.93)"/><path class="cls-24" d="M802.86,1427.82C784,1507,762.06,1629.25,794.1,1771c-15.21-4.69-39.35-14.28-42.31-15.44l-.31-.13c-7.59-43-6.33-246.77,24-335.35,13.45-7.77,25.36-15.36,36-22.52C807.16,1414.58,802.86,1427.82,802.86,1427.82Z" transform="translate(-192.31 -144.93)"/><path class="cls-31" d="M758.44,1145.52c-13.33-49.57,29.24-64.84,11.86-131-16.45-62.64,4.25-92.68,39.68-112.72,33.73-19.07,76.27-31.87,109.72,4.58,30.12,32.82-3.42,83.9-3.42,108.67s41.76,97.6,18.35,145.68Z" transform="translate(-192.31 -144.93)"/><path class="cls-37" d="M990.32,1396.71c-28.77,31-56.61,27.84-56.61,27.84l-26.87-12s-11.73,12.65-25.65,17.72c-7.77,2.83-33.91,2.68-58.79.15l-.84-.08c-19.33-2-37.78-5.52-46-10.2,28.45-81.62-18.65-118.52-16.65-172.71v0c0-1.27.1-2.53.2-3.8,3.42-43.53-38.54-62.87-35.61-98.07,28-26.47,102.28-58.21,102.28-58.21l62.41-5.06c20.88,6.32,65.17,26.12,77.19,36.8s34.17,137.83,20.88,173.26S975.47,1349.89,990.32,1396.71Z" transform="translate(-192.31 -144.93)"/><path class="cls-38" d="M797.66,1100.24c-40.19,53.09,21.88,41.27,15.19,71.22-13.28,59.48,66.44,76.56,89.22,102.5,83-102.93,21.65-119,32.9-149.32,3.48-9.38-20-32.3-20-32.3l-26.86-10.09-62.42,5.06Z" transform="translate(-192.31 -144.93)"/><path class="cls-18" d="M816.53,1091.39c3.92,71.84,76.44,114.87,85.54,175,36.7-81.62,5.58-134.15,0-160.08S816.53,1091.39,816.53,1091.39Z" transform="translate(-192.31 -144.93)"/><path class="cls-29" d="M818.32,1106.07c21.21,25.32,74.86,27.47,86,8.41l-2.23-8.19-85.54-14.9Z" transform="translate(-192.31 -144.93)"/><path class="cls-38" d="M902.85,1281.37s.51,1.49,1.33,4.13l1.45,4.75c.62,1.81,1.06,4,1.59,6.3s1.1,4.86,1.62,7.55.89,5.52,1.31,8.47.8,6,1.06,9.1.66,6.26.75,9.43.25,6.33.37,9.44,0,6.19,0,9.15c0,5.94-.41,11.46-.72,16.19s-.94,8.65-1.21,11.4-.57,4.31-.57,4.31l-1.6-.12s-.05-1.58-.08-4.33,0-6.67-.09-11.38c0-2.35-.07-4.89-.12-7.58s-.17-5.52-.23-8.45-.13-6-.3-9-.33-6.19-.49-9.31-.44-6.22-.65-9.29-.4-6.08-.77-9-.59-5.72-.83-8.4-.69-5.14-1-7.45-.5-4.44-.87-6.34-.61-3.54-.84-4.9c-.46-2.72-.67-4.29-.67-4.29Z" transform="translate(-192.31 -144.93)"/><path class="cls-20" d="M899.33,1066.34s-8,16.54,2.74,40c-20.88,25.31-64.62,8.42-84.83-11.61-3.75-15.6-3.75-39.64-3.75-39.64s-16.42-35.09,6.32-25.94S899.33,1066.34,899.33,1066.34Z" transform="translate(-192.31 -144.93)"/><path class="cls-22" d="M843.71,1062.31c-12.94-3.27-27.34,7.86-20.12,37.93-2.38-2-5.09-4.4-6-5.26l-.33-.31c-3.74-15.59-3.74-39.63-3.74-39.63s-16.43-35.1,6.32-25.94c4.16,1.67,9.45,4,15.32,6.6a72.79,72.79,0,0,1,2.83,9.85C839.63,1051.88,843.71,1062.31,843.71,1062.31Z" transform="translate(-192.31 -144.93)"/><path class="cls-22" d="M897.06,1074.45c-15.87,9.38-38.32,2.71-53.35-12.14l55.62,4Z" transform="translate(-192.31 -144.93)"/><path class="cls-32" d="M921.05,945.58c4.43,20.24,11.46,145.14-54.76,125.42-34.45-10.27-50.27-25.45-58.5-48.23s-42.39-73.4,19-81S921.05,945.58,921.05,945.58Z" transform="translate(-192.31 -144.93)"/><path class="cls-22" d="M833.1,988c29.32-52.52,69-2.74,90.33-19.25l-.76-11.36s-67.84-24.44-83-5.46S833.1,988,833.1,988Z" transform="translate(-192.31 -144.93)"/><path class="cls-31" d="M928.64,958.23c-28.47,32.9-67.07-43-95.54,29.74-3.79,15.82,1.27,51.88-19.61,67.07S747.68,963.93,785,944.31s101.86-56.95,120.85-36.7S928.64,958.23,928.64,958.23Z" transform="translate(-192.31 -144.93)"/><path class="cls-32" d="M833.1,988s-16.46-13.14-19.61,0,5.81,34.63,15.88,36C837.53,1006.14,833.1,988,833.1,988Z" transform="translate(-192.31 -144.93)"/><path class="cls-24" d="M919.7,1427.34c-5-.43-62.87,15.75-142.39-6.3a8.15,8.15,0,0,1-1.79-.92c28.45-81.62-18.65-118.52-16.65-172.71,0,0,7.06,4,7.06,4l18.55-38.62c20.17,44.45,52.48,91.44,77.6,122.61,6.88,8.53,67.17,23,123.72,46.41C985.8,1381.86,920.23,1427.39,919.7,1427.34Z" transform="translate(-192.31 -144.93)"/><path class="cls-20" d="M1021.37,1395.65c10.69-2.78,25.82-16.91,37.22-10.3s5.25,13.22,24.31,9.55,31.53-3.24,21.84,20.24-31.56,33.19-49.75,29.45-38.88-14.77-49.15-14.73S1021.37,1395.65,1021.37,1395.65Z" transform="translate(-192.31 -144.93)"/><path class="cls-35" d="M723.47,1145.52c-32.84,109.58,54.62,231.83,88.88,251.08,60,33.76,198.78,40,198.78,40s10.94-27.56,10.55-48.67c-31.15-2-168.6-37.71-169.44-40.78s-61.66-101.52-61.66-101.52-7.09-61.51-28.27-80.36S723.47,1145.52,723.47,1145.52Z" transform="translate(-192.31 -144.93)"/><path class="cls-39" d="M3071.51,2009c-9.68,6.71-54.6,41.54-61.16,47.09s-14,23.72-12,29.27h85.8c6.06,0,14.13-9.09,14.13-9.09v7.07h30.28c10.1-20.19,6.91-62.39.35-74.34S3071.51,2009,3071.51,2009Z" transform="translate(-192.31 -144.93)"/><path class="cls-40" d="M3222.51,2008.36c-4.23,11.37-8.38,54.27,0,68.4,4.85,2.52,13.43,4.54,13.43,4.54l4.54-7.06s6.57,10.59,15.15,11.1,56.52,6.56,65.6-6.06c.54-10.6-8.32-26.16-16.52-34.78s-13.76-28.81-13.76-43.44-33.81-27.76-44.41-18.67S3222.51,2008.36,3222.51,2008.36Z" transform="translate(-192.31 -144.93)"/><path class="cls-35" d="M3067.88,1776.48c1,22.2,0,202.88,0,229.67,7.5,7.93,33.48,13.32,55.4,10.21a66.42,66.42,0,0,0,13.24-3.21c8.08-30.78,18.11-195.31,14.07-211.46,2-11.1,36.93-217.47,36.93-217.47s22.69,163.79,28.74,214.46c-7.07,39.57,6.56,182.66,3.53,207.43,9.59,9.93,38.88,12.09,59.29,8.15,8.62-1.67,15.65-4.42,18.94-8.11,5.05-20.66,4-203.43,6.05-244.81s13.45-229.34,7.9-296c0,0-.6-2.09-1.91-5.68-7.69-21.18-39.8-94.54-115.67-95.89-88.69-1.6-111.31,87.13-115.75,109.37S3066.88,1754.27,3067.88,1776.48Z" transform="translate(-192.31 -144.93)"/><path class="cls-24" d="M3123.28,2016.36a66.42,66.42,0,0,0,13.24-3.21c8.08-30.78,18.11-195.31,14.07-211.46,2-11.1,36.93-217.47,36.93-217.47s-18.51,27-27.4,56.67-23.15,118.85-25,152.95C3133.49,1822,3125.91,1966.5,3123.28,2016.36Z" transform="translate(-192.31 -144.93)"/><path class="cls-24" d="M3189,1379.41s6.71,107.11-5.14,121-86.74,9.11-107.45-9.26c0,0,60-110.22,76.71-114.66S3189,1379.41,3189,1379.41Z" transform="translate(-192.31 -144.93)"/><path class="cls-24" d="M3210.9,1493.49c12.6,20.73,49.76,10.82,69.62,25.18,19.23,13.88,2.36,223.49,1.35,268.91-.81,35.91-2.22,171.47-2.79,226.68,8.62-1.67,15.65-4.42,18.94-8.11,5.05-20.66,4-203.43,6.05-244.81s13.45-229.34,7.9-296c0,0-.6-2.09-1.91-5.68C3268.37,1464.69,3210.9,1493.49,3210.9,1493.49Z" transform="translate(-192.31 -144.93)"/><path class="cls-41" d="M3237.86,1063.81l-91.66-2.58S3164.59,1387,3166.78,1387c10.37,0,45.25,3.28,59.26-4.6Z" transform="translate(-192.31 -144.93)"/><path class="cls-42" d="M3245.73,1090.89s-28.17,17.78-51.34,17-52.79-22.6-52.79-22.6l4.6-24.1,91.66,2.58Z" transform="translate(-192.31 -144.93)"/><path class="cls-18" d="M3200.12,1071.26c.74,1.48,14.42,33.65,14.42,33.65l-10.72,21.91,12.59,89.63v110.37s-15.89,26.29-22,26.66-21.68-31.48-21.68-31.48V1194.59l8.18-68.51-6.63-22.79,17.71-32Z" transform="translate(-192.31 -144.93)"/><path class="cls-43" d="M3053.51,1114.54c-18.51,33.7-36.58,136.46-46.45,146.37s-66,47.17-89.1,60.67c0,0-5.69,26.85,10,44.94a39.11,39.11,0,0,0,7.69,6.84c31.68-6.4,100.64-42.34,116.17-57,5.33-5,29.11-35.54,45.41-74,4.35,21.47-31.44,210.24-30.75,242.16,28.13,25.17,98.82,14.19,111.42,9,7.27-62.55-1.13-176.48-.06-231.84,0-1,0-2,.06-3,2.71-103-25.2-154.82-31.69-197.44-3.17,2-8.11,4.91-14.11,8v0C3114.27,1078.61,3063.22,1096.88,3053.51,1114.54Z" transform="translate(-192.31 -144.93)"/><path class="cls-44" d="M3339.74,1106.75c-20.74-17.78-59.4-32.59-101.88-42.94-12.84,22.55-29.7,91.9-27,194.86,0,1,.05,2,.07,3,1.05,55.35-7.35,169.28-.07,231.84,12.58,5.18,90.69,12.13,118.85-13.07,1.11-74.41-38.89-212.54-12.22-264,0,0,36.29-43,34.07-61.48S3339.74,1106.75,3339.74,1106.75Z" transform="translate(-192.31 -144.93)"/><path class="cls-28" d="M3124.43,1138.67c7.54,8.51,18.32,20.75,12,39.26-13.71,40,35.42,65.94,41.42,83.72,0-1,.05-2,.07-3,2.71-103-25.2-154.82-31.69-197.45-3.18,2-8.11,4.92-14.11,8v0s-13.09,33.82-15.31,42.71S3116.9,1130.16,3124.43,1138.67Z" transform="translate(-192.31 -144.93)"/><path class="cls-28" d="M3210.9,1258.67c0,1,0,2,.07,3,7.51-20,48.78-18.54,47.29-102.6-.18-10.78-.74-16.67,15.93-23.72s-4.1-44.88-14.81-65.37v0c-8.16-2.49-17.65-3.67-21.51-6.13C3225,1086.36,3208.17,1155.71,3210.9,1258.67Z" transform="translate(-192.31 -144.93)"/><path class="cls-45" d="M3237.87,1063.81c-46.53,22.21-66.23,13-91.67,0,6-19.94,10.54-48.86,10.54-48.86l.2-.15,4.87-3.79h0c17.78-13.79,76.11-58.44,74.18-50.22-2.26,9.68-1.94,32-1.94,32C3231.93,1005.64,3225.38,1038.51,3237.87,1063.81Z" transform="translate(-192.31 -144.93)"/><path class="cls-22" d="M3204.49,1012.85c-17.65,17.84-45.82,56.91-45.82,56.91l-12.47-6c6-19.94,10.54-48.86,10.54-48.86l.2-.15a45.39,45.39,0,0,1,4.87-3.79h0C3185.21,995.09,3204.49,1012.85,3204.49,1012.85Z" transform="translate(-192.31 -144.93)"/><path class="cls-46" d="M3229.06,923.48s30.28,82.62-31.42,110.43c-72.47,32.69-65.4-30.58-61-94.08,0,0,14.46-28.92,39-27.66S3229.06,923.48,3229.06,923.48Z" transform="translate(-192.31 -144.93)"/><path class="cls-47" d="M3247,983.24c-3.59,8.47-7.33,17.12-10.32,26.1-1.47,4.42-4.86,12.62-7.52,12.6,1.32-10.39-1.78-26.58-2.1-36.53-.62-17.64-1.41-36.08-9.88-45.59-15.73-17.6-68.55,13.85-80.49,0-51.28-59.35,17.69-55.22,46.54-59.71,19.61-3.07,52.17.62,70.4,35.19C3265.45,937.79,3256.83,959.74,3247,983.24Z" transform="translate(-192.31 -144.93)"/><path class="cls-45" d="M3247,983.3c-1.88,9.46-6.37,14.75-10.35,17.65a18.85,18.85,0,0,1-7.41,3.43h0c-4-3.79-6.72-17-2.18-27.36v0c4.43-5.79,17.1-10.39,19.94-2.15C3247.62,976.84,3247.72,979.62,3247,983.3Z" transform="translate(-192.31 -144.93)"/><path class="cls-48" d="M3010.35,2056.07c3.55-2.89,23.29-9.62,44.4-4.62,21.11-10.56,40-27.22,40-27.22s-12.24-6.17-34.46-7Z" transform="translate(-192.31 -144.93)"/><path class="cls-48" d="M3313.47,2056.07c-4.3-6.27-38.72-10.38-54.83,0-8.89-15.18-14.22-20.08-16.12-30.73,6.12-5,36.56-11.08,51.2-4.06Z" transform="translate(-192.31 -144.93)"/><path class="cls-24" d="M3361.53,1276.63c-9.84-27.65-41.26-74.46-48.05-78-10,14.81-14.91,72.67,0,136.7,2.67-4.52-16.21-90,4-118.93C3317.52,1216.38,3351.69,1261.27,3361.53,1276.63Z" transform="translate(-192.31 -144.93)"/><path class="cls-24" d="M3080.31,1378.28c14-28.56,31-122.08,18.44-153.84-13.33,23.06-32.13,74.16-84.58,116,40.88-17.41,68.92-65.54,83-98.14C3097.22,1242.32,3094.61,1281.14,3080.31,1378.28Z" transform="translate(-192.31 -144.93)"/><path class="cls-49" d="M3365.8,1454.48a26.6,26.6,0,0,1,17.11,33.38l-3.25,10.1a26.59,26.59,0,0,1-33.38,17.11l-443-143.25a26.61,26.61,0,0,1-17.11-33.38l3.25-10.1a26.6,26.6,0,0,1,33.38-17.11Z" transform="translate(-192.31 -144.93)"/><path class="cls-24" d="M3382.92,1487.87l-3.25,10.1a26.62,26.62,0,0,1-33.39,17.1l-443-143.25a26.63,26.63,0,0,1-17.74-31.11,26.51,26.51,0,0,0,17.74,19.52l443,143.27a26.62,26.62,0,0,0,33.39-17.12l3.25-10.09.6-2.42A26.45,26.45,0,0,1,3382.92,1487.87Z" transform="translate(-192.31 -144.93)"/><path class="cls-50" d="M2849,1228.26l66,35.47c10.76,5.78,16.51,20,12.76,31.67L2899,1384.71c-3.74,11.64-16.73,19.86-28.84,18.27l-74.3-9.73,11.3-85.08Z" transform="translate(-192.31 -144.93)"/><path class="cls-24" d="M2900.81,1379l-1.82,5.69c-3.76,11.64-16.74,19.86-28.84,18.26l-74.32-9.73,11.31-85.07,5-9.44-10.89,82,74.29,9.73C2885.06,1391.7,2895.15,1386.84,2900.81,1379Z" transform="translate(-192.31 -144.93)"/><circle class="cls-51" cx="2486.11" cy="1202.41" r="368.89" transform="translate(-314.38 1965.19) rotate(-45)"/><path class="cls-24" d="M2837.22,1315.53s-1.36,4.28-3.93,12.32c-.66,2-1.31,4.26-2.19,6.7s-1.92,5.08-3,8-2.21,6-3.52,9.24l-4.51,10.25-2.46,5.56c-.87,1.89-1.87,3.77-2.84,5.73-2,3.89-4,8-6.2,12.23l-7.38,12.92c-2.58,4.47-5.61,8.86-8.55,13.54a353.77,353.77,0,0,1-117,110.7,363.6,363.6,0,0,1-43.14,21.51c-7.51,3.39-15.43,6-23.31,9l-12.1,3.78c-2,.62-4.05,1.29-6.1,1.86l-6.21,1.61a361.28,361.28,0,0,1-51.22,9.76c-17.51,2.31-35.42,2.8-53.41,2.44l-13.52-.56c-4.51-.33-9-.79-13.53-1.18-2.26-.23-4.52-.36-6.77-.66l-6.75-.94c-4.49-.69-9-1.13-13.5-2l-13.44-2.55c-4.49-.84-8.89-2.07-13.35-3.09l-6.66-1.61c-2.22-.54-4.39-1.25-6.59-1.88l-13.31-3.92c-8.5-3.06-16.94-5.69-25.51-9.39l-6.4-2.6c-2.14-.86-4.26-1.74-6.31-2.73l-12.4-5.78c-4.13-1.92-8.09-4.19-12.13-6.26l-6-3.18c-2-1.1-3.92-2.29-5.87-3.43-3.9-2.33-7.84-4.56-11.66-7l-11.31-7.44c-14.8-10.24-29.08-21.06-41.93-33.17a363.66,363.66,0,0,1-35.89-37.84l-4.1-4.92-3.87-5.08c-2.54-3.39-5.14-6.73-7.61-10.13-4.71-7-9.6-13.72-13.73-20.86a363.28,363.28,0,0,1-22.5-42.63,357.22,357.22,0,0,1-25.66-84.15,352.57,352.57,0,0,1-4.9-74c.33-5.51.43-10.86.94-16s1-10.06,1.54-14.8c.65-4.72,1.43-9.23,2.09-13.55.36-2.15.64-4.27,1-6.31s.84-4,1.25-6q1.22-5.79,2.31-11c.85-3.41,1.75-6.59,2.53-9.55s1.54-5.69,2.21-8.19,1.51-4.72,2.14-6.74l4-12.3-3.31,12.5c-.51,2-1.18,4.3-1.74,6.82s-1.12,5.3-1.75,8.28-1.28,6.2-2,9.62q-.84,5.18-1.79,11c-.31,1.94-.64,3.93-1,6s-.48,4.15-.73,6.3c-.46,4.31-1,8.8-1.45,13.5s-.59,9.6-.9,14.69-.2,10.35-.32,15.79a368.46,368.46,0,0,0,7.32,72.47c.56,3.29,1.49,6.54,2.23,9.86s1.54,6.66,2.43,10,1.94,6.69,2.92,10.08c.49,1.69,1,3.4,1.48,5.11s1.15,3.38,1.72,5.08l3.51,10.28c1.18,3.45,2.65,6.83,4,10.29,2.57,7,5.8,13.75,8.93,20.7a354,354,0,0,0,22.75,40.94c4.17,6.83,9,13.29,13.67,20,2.44,3.26,5,6.46,7.51,9.72l3.8,4.87,4,4.72c21.34,25.42,47.22,48.36,76,67.86l10.95,7.14c3.71,2.3,7.53,4.44,11.3,6.67,1.89,1.09,3.77,2.23,5.68,3.29l5.84,3c3.92,2,7.75,4.16,11.75,6l12,5.53c2,1,4,1.78,6.06,2.58l6.08,2.46c7.95,3.42,16.72,6.12,25.14,9.14l12.55,3.75c2.12.61,4.22,1.31,6.37,1.84l6.43,1.58c4.3,1,8.55,2.22,12.88,3l13,2.52c4.31.89,8.7,1.32,13,2l6.51.93c2.17.31,4.36.44,6.54.67,4.36.39,8.71.86,13.06,1.2l13.06.59A367.93,367.93,0,0,0,2581.89,1549l6-1.48c2-.52,4-1.16,5.93-1.73l11.78-3.51c7.66-2.76,15.4-5.14,22.76-8.27a352.37,352.37,0,0,0,42.35-20c6.59-3.84,13.18-7.48,19.32-11.63,3.09-2,6.25-3.94,9.23-6l8.84-6.3c1.46-1,2.94-2,4.36-3.13l4.18-3.29,8.25-6.49c2.68-2.21,5.22-4.52,7.8-6.73s5.19-4.37,7.56-6.71a370.14,370.14,0,0,0,48.19-54.64c3.06-4.49,6.23-8.72,8.94-13l7.83-12.46c2.39-4.07,4.55-8,6.69-11.81,1.05-1.9,2.13-3.71,3.08-5.55s1.81-3.65,2.69-5.4q2.61-5.26,5-10,2.13-4.79,4-9c1.23-2.79,2.37-5.38,3.42-7.74s1.79-4.61,2.56-6.57Z" transform="translate(-192.31 -144.93)"/><path class="cls-52" d="M2135,1091.53s1.36-4.29,3.93-12.33c.66-2,1.31-4.26,2.2-6.7s1.91-5.08,3-8,2.21-6,3.51-9.24l4.52-10.25,2.45-5.56c.87-1.89,1.88-3.77,2.84-5.73,2-3.89,4-8,6.21-12.23l7.37-12.92c2.58-4.47,5.62-8.86,8.55-13.54a353.77,353.77,0,0,1,117-110.7,363.6,363.6,0,0,1,43.14-21.51c7.52-3.39,15.43-6,23.31-9l12.1-3.78c2-.62,4.05-1.29,6.1-1.86l6.21-1.61a361.55,361.55,0,0,1,51.22-9.76c17.51-2.31,35.42-2.8,53.41-2.44l13.52.56c4.51.33,9,.79,13.53,1.18,2.26.23,4.53.36,6.77.66l6.75.94c4.5.69,9,1.13,13.5,2l13.45,2.55c4.48.84,8.88,2.07,13.34,3.09l6.66,1.61c2.22.54,4.4,1.25,6.6,1.88l13.31,3.92c8.5,3.06,16.93,5.69,25.5,9.39l6.4,2.6c2.14.86,4.26,1.73,6.31,2.73l12.4,5.78c4.13,1.92,8.09,4.19,12.13,6.26l6,3.18c2,1.1,3.92,2.29,5.88,3.43,3.89,2.32,7.83,4.56,11.66,7l11.3,7.43c14.8,10.24,29.09,21.06,41.93,33.17a363.66,363.66,0,0,1,35.89,37.84l4.1,4.92,3.87,5.08c2.55,3.39,5.14,6.73,7.61,10.13,4.71,7,9.61,13.72,13.73,20.86a363.28,363.28,0,0,1,22.5,42.63,353.62,353.62,0,0,1,30.57,158.14c-.34,5.51-.43,10.85-.94,16s-1.05,10.06-1.55,14.81c-.65,4.72-1.43,9.23-2.09,13.55-.36,2.15-.64,4.27-1,6.31l-1.26,6q-1.22,5.79-2.31,11c-.84,3.41-1.75,6.58-2.53,9.55s-1.54,5.69-2.21,8.2-1.51,4.72-2.14,6.73c-2.6,8-4,12.3-4,12.3l3.31-12.5c.51-2,1.18-4.29,1.75-6.82s1.11-5.3,1.74-8.28,1.28-6.2,2-9.62q.84-5.17,1.78-11c.32-1.93.64-3.92,1-6s.48-4.16.73-6.3c.46-4.31,1-8.8,1.45-13.5s.59-9.6.9-14.69.2-10.35.32-15.79a368.39,368.39,0,0,0-7.32-72.47c-.56-3.29-1.49-6.54-2.23-9.86s-1.54-6.67-2.42-10-1.95-6.69-2.93-10.08c-.49-1.69-1-3.4-1.48-5.11s-1.15-3.38-1.72-5.08l-3.51-10.28c-1.18-3.45-2.65-6.83-4-10.29-2.57-6.95-5.8-13.75-8.92-20.7a353.51,353.51,0,0,0-22.76-41c-4.17-6.82-9-13.28-13.66-20-2.45-3.26-5-6.46-7.51-9.72l-3.81-4.87-4-4.72c-21.34-25.42-47.22-48.36-76-67.86l-11-7.14c-3.71-2.3-7.53-4.44-11.29-6.67-1.9-1.09-3.77-2.23-5.69-3.29l-5.84-3c-3.92-2-7.75-4.16-11.75-6l-12-5.53c-2-1-4-1.79-6-2.58l-6.09-2.46c-7.94-3.43-16.72-6.12-25.14-9.14l-12.55-3.75c-2.12-.6-4.22-1.3-6.36-1.84l-6.44-1.58c-4.29-1-8.54-2.22-12.87-3l-13-2.52c-4.31-.89-8.7-1.32-13-2l-6.52-.93c-2.17-.31-4.36-.44-6.54-.67-4.36-.39-8.71-.86-13.06-1.2l-13.06-.59A367.82,367.82,0,0,0,2390.33,858l-6,1.48c-2,.53-4,1.16-5.93,1.73l-11.77,3.51c-7.67,2.76-15.4,5.14-22.76,8.27a352.52,352.52,0,0,0-42.36,20c-6.59,3.84-13.18,7.48-19.32,11.63-3.09,2-6.25,3.94-9.22,6l-8.85,6.3c-1.46,1-2.94,2.06-4.36,3.13l-4.17,3.29-8.26,6.5c-2.67,2.2-5.22,4.51-7.8,6.72s-5.18,4.37-7.56,6.71A369,369,0,0,0,2183.75,998c-3.07,4.49-6.24,8.72-8.94,13s-5.33,8.47-7.83,12.46-4.56,8-6.7,11.81c-1.05,1.9-2.13,3.72-3.07,5.55l-2.69,5.4-5,10q-2.13,4.78-4,9c-1.23,2.79-2.37,5.38-3.42,7.74s-1.79,4.61-2.56,6.57C2136.59,1087.32,2135,1091.53,2135,1091.53Z" transform="translate(-192.31 -144.93)"/><path class="cls-53" d="M2590.3,879c178.62,57.55,276.78,249,219.23,427.63s-249,276.77-427.61,219.23-276.78-249-219.24-427.62S2411.67,821.44,2590.3,879Z" transform="translate(-192.31 -144.93)"/><path class="cls-52" d="M3125.79,1386.63s2.8.69,7.67,2,11.84,3.15,20.14,5.56,18,5.22,28.31,8.39,21.3,6.64,32.27,10.14,21.9,7.16,32.12,10.65l14.72,5.07,13.16,4.65c8.14,2.9,14.87,5.48,19.61,7.21s7.4,2.84,7.4,2.84a1.06,1.06,0,0,1-.64,2s-2.8-.7-7.67-2-11.83-3.2-20.13-5.59l-13.4-3.91-14.91-4.47c-10.34-3.14-21.32-6.61-32.29-10.11s-21.91-7.11-32.13-10.61-19.75-6.78-27.88-9.71-14.87-5.5-19.6-7.23-7.4-2.86-7.4-2.86a1.06,1.06,0,0,1,.65-2Z" transform="translate(-192.31 -144.93)"/><path class="cls-45" d="M3361.53,1486.76c-7.78,7.22-5,33.88-25.56,42.77s-51.11-17.22-50-25.55,9.45-10.56,9.45-10.56-12.22-6.11-1.11-9.44,27.19-7.22,29.43-10.56,15.57-13.33,22.23-7.78S3361.53,1486.76,3361.53,1486.76Z" transform="translate(-192.31 -144.93)"/><path class="cls-41" d="M3319.86,1467.87l-3.71,9.55s14.45,23,41.36,16.7l4-7.36Z" transform="translate(-192.31 -144.93)"/><path class="cls-54" d="M3339.74,1106.75c12.34,11.77,73.33,100,95.56,154.82,7.71,19,5.18,40,0,59.26S3376,1477.13,3363.44,1489c-19.26,2.22-40-8.15-46.66-20.74,5.92-18.52,52.51-143.34,61.4-158.16-9.55-28.94-46.34-78.09-60.66-93.7C3293.07,1189.72,3307.9,1076.38,3339.74,1106.75Z" transform="translate(-192.31 -144.93)"/><path class="cls-45" d="M2927.12,1378.49c-15.56,13.21-25.07,20.86-45.82,9.16-29-16.33-11.11-42.38,0-46.08s23.71,11,29.64,22.17A32.4,32.4,0,0,0,2927.12,1378.49Z" transform="translate(-192.31 -144.93)"/><circle class="cls-17" cx="2492.45" cy="1061.23" r="133.33" transform="translate(-212.69 1928.32) rotate(-45)"/><g class="cls-55"><circle class="cls-12" cx="2300.14" cy="916.3" r="114.81"/><path class="cls-47" d="M2435.65,1104.19c-2.36-38.46-10.06-139.65,40.83-125.45,24.86-23.67,57.17.23,61.54,23.08,7.81,40.83,3.55,86.39,7.69,102.37S2435.65,1104.19,2435.65,1104.19Z" transform="translate(-192.31 -144.93)"/><path class="cls-18" d="M2579.15,1156.85s-24.1,24.39-82.26,27.34c-59.91,3-82.24-29.41-82.24-29.41s11.54-43.2,15.38-50,28.7-30.47,50.89-35.8c0,0,9.76-4.73,27.22-2.37s47,26,51.78,32.55S2579.15,1156.85,2579.15,1156.85Z" transform="translate(-192.31 -144.93)"/><path class="cls-46" d="M2457,1025.49c0,64.5,62.13,74.56,67.45,4.73-16-37.87-26.63-41.42-36.69-41.42S2457,1025.49,2457,1025.49Z" transform="translate(-192.31 -144.93)"/><path class="cls-47" d="M2478.26,1002.12c-1.48,6.5-12.66,27.75-21.83,28.05s-.95-31.31,11.18-38.7,37.87-19.53,47.34,0,16.26,32.54,9.46,38.75S2486.84,1027.26,2478.26,1002.12Z" transform="translate(-192.31 -144.93)"/><path class="cls-46" d="M2524.41,1030.23c6.22-.77,11.64,9.72-3.9,20.89C2520.51,1043.42,2524.41,1030.23,2524.41,1030.23Z" transform="translate(-192.31 -144.93)"/><path class="cls-46" d="M2456.43,1030.17c-6.26-.15-12.31,10.83,4.26,20.39C2463.47,1032.1,2456.43,1030.17,2456.43,1030.17Z" transform="translate(-192.31 -144.93)"/></g><rect class="cls-11" x="2113.46" y="1092.53" width="373.37" height="28.91" rx="12.39"/><rect class="cls-56" x="2079.24" y="1159.14" width="441.81" height="18.94" rx="8.12"/><path class="cls-56" d="M2713.35,1353.73a8.14,8.14,0,0,1-8.11,8.12H2279.66a8.14,8.14,0,0,1-8.11-8.12V1351a8.14,8.14,0,0,1,8.11-8.12h425.58a8.14,8.14,0,0,1,8.11,8.12Z" transform="translate(-192.31 -144.93)"/></g></g></svg>